<?xml version="1.0" encoding="utf-8"?>
<!-- Generator: Adobe Illustrator 21.1.0, SVG Export Plug-In . SVG Version: 6.00 Build 0)  -->
<svg version="1.1" id="Laag_1" xmlns="http://www.w3.org/2000/svg" xmlns:xlink="http://www.w3.org/1999/xlink" x="0px" y="0px"
	 viewBox="0 0 2048 2048" style="enable-background:new 0 0 2048 2048;" xml:space="preserve">
<style type="text/css">
	.st0{fill:#101010;}
	.st1{fill:#F9F9F9;}
</style>
<path class="st0" d="M1024.3,1769h478c-35.3-86.7-49.7-180-43-280c-66.7-26-137.7-48.5-213-67.5s-149.3-28.5-222-28.5
	c-73.3,0-147.7,9.5-223,28.5s-146,41.5-212,67.5c6,100-8.3,193.3-43,280H1024.3z M1024.3,1319c74,0,148.5,8.8,223.5,26.5
	s148.5,40.2,220.5,67.5c11.3-70,31.5-140.8,60.5-212.5S1593,1058,1634.3,988l-220,155l-123-601l-267,555l-267-555l-123,601l-220-155
	c40.7,70,75.5,140.8,104.5,212.5s49.5,142.5,61.5,212.5c72-27.3,145.5-49.8,220.5-67.5S950.3,1319,1024.3,1319z M1024.3,1843h-583
	c76-154,95.2-306.2,57.5-456.5S393.6,1086.3,296.3,937c-8,1.3-14.3,2-19,2c-36,0-66.8-12.8-92.5-38.5S146.3,844,146.3,808
	s12.8-66.8,38.5-92.5s56.5-38.5,92.5-38.5s66.8,12.8,92.5,38.5s38.5,56.5,38.5,92.5c0,13.3-2,26-6,38c-2.7,9.3-7.7,20.3-15,33
	l196,139l100-486c-42.7-20.7-66.7-55-72-103c-3.3-29.3,6.3-59.7,29-91s52-49,88-53c36-3.3,68,6.3,96,29s44,52,48,88
	c4.7,45.3-10.7,83.3-46,114l198,412l198-412c-36-30.7-51.3-68.7-46-114c4-36,20-65.3,48-88s60-32.3,96-29c36,4,65.2,21.7,87.5,53
	s32.2,61.7,29.5,91c-6,48-30,82.3-72,103l100,486l196-139c-8-12.7-13-23.7-15-33c-4-12-6-24.7-6-38c0-36,12.8-66.8,38.5-92.5
	s56.5-38.5,92.5-38.5s66.8,12.8,92.5,38.5s38.5,56.5,38.5,92.5s-12.8,66.8-38.5,92.5s-56.5,38.5-92.5,38.5c-4.7,0-11-0.7-19-2
	c-98,149.3-165.7,299.2-203,449.5s-18,302.5,58,456.5H1024.3z M276.3,746c-41.3,0-62,20.7-62,62s20.7,62,62,62c42,0,63-20.7,63-62
	S318.3,746,276.3,746z M742.3,352c-41.3,0-62,20.7-62,62s20.7,62,62,62s62-20.7,62-62S783.6,352,742.3,352z M590.3,1519l119,72
	l-134,86C588,1619.7,593,1567,590.3,1519z M1772.3,746c-42,0-63,20.7-63,62s21,62,63,62c41.3,0,62-20.7,62-62S1813.6,746,1772.3,746
	z M1306.3,352c-41.3,0-62,20.7-62,62s20.7,62,62,62s62-20.7,62-62S1347.6,352,1306.3,352z M1458.6,1519.1l-118.5,72l133.4,86
	C1460.2,1619.8,1455.2,1567.1,1458.6,1519.1z M885.3,1566l139-83l139,86l-139,84L885.3,1566z"/>
<g>
	<path class="st1" d="M576.8,1374.2c-14.3-66.7-52.3-173.4-91.8-257.4c-23.4-49.7-40.8-92-38.8-94c2-2,45.8,26.2,97.3,62.7
		l93.7,66.3L695.6,867c32.1-156.6,59.6-290.3,61.1-297.1s60.9,109.4,132.2,258.2c71.3,148.8,132.1,270.5,135.1,270.5
		s63.8-121.7,135.1-270.5c71.3-148.8,130.8-265,132.2-258.2c1.4,6.8,28.9,140.5,61.1,297.1l58.4,284.7l93.7-66.3
		c51.5-36.5,95.5-64.5,97.8-62.2s-12,36.3-31.7,75.5c-38.5,76.5-78.3,184.4-95.3,258.1c-5.8,25.1-13.1,45.5-16.2,45.4
		s-41.7-11.5-85.7-25.4c-142.5-45-213-56.3-349.5-56.3s-207,11.4-349.5,56.3c-44,13.9-82.7,25.3-85.9,25.4
		C585.4,1402.3,580.1,1389.7,576.8,1374.2L576.8,1374.2z"/>
	<path class="st1" d="M558.9,1747.3c3.1-10.7,7.8-29.6,10.5-41.9c3.6-16.3,23.6-34,73.4-65.1c37.7-23.5,68.6-45.2,68.6-48.2
		c0.1-3-27.2-22-60.6-42.2c-33.4-20.2-60.7-41.3-60.7-47c0-12.8,141.3-59.8,251.4-83.7c111-24.1,254.1-24.1,365.1,0
		c110,23.9,251.4,70.9,251.4,83.7c0,5.7-27.3,26.8-60.7,47s-60.7,39.2-60.6,42.2c0.1,3,29.4,23.9,65.2,46.4
		c62.8,39.5,73.8,53,87.4,107l5.3,21.3H553.4L558.9,1747.3z M1097.5,1614.3c36-21.8,65.4-42.3,65.3-45.6
		c-0.1-7.1-127.7-88.3-138.9-88.3c-14.7,0-139.6,79.8-137,87.6c3.4,10,121,84.7,134.6,85.4
		C1027.3,1653.8,1061.5,1636.2,1097.5,1614.3L1097.5,1614.3z M1738.2,857.4c-27.9-17.8-27.9-81.3,0.1-99.1
		c35.3-22.5,92.7,8.2,92.7,49.6C1831.1,849.3,1773.6,880,1738.2,857.4L1738.2,857.4z M1284.3,468c-34.3-12.7-46.7-67.7-21.1-93.3
		c17.6-17.6,68-17.6,85.5,0c16.4,16.4,17.8,55.7,2.8,75.3C1339.4,465.9,1304.2,475.3,1284.3,468L1284.3,468z M720.3,468
		c-34.3-12.7-46.7-67.7-21.1-93.3c17.6-17.6,68-17.6,85.5,0c16.4,16.4,17.8,55.7,2.8,75.3C775.4,465.9,740.1,475.3,720.3,468
		L720.3,468z M234.3,847c-22.2-22.2-22.2-55.9,0-78.1c17.4-17.4,56.1-22.8,75.5-10.5c27.9,17.8,27.9,81.3-0.1,99.1
		C290.4,869.8,251.7,864.4,234.3,847L234.3,847z"/>
</g>
</svg>
